<?xml version="1.0" encoding="UTF-8"?>
<svg width="1000" height="1000" viewBox="0 0 1000 1000" xmlns="http://www.w3.org/2000/svg">
  <path d="
    M500 50
    C250 50 150 200 150 400
    C150 550 200 650 300 750
    L350 800
    L325 850
    L400 900
    L450 875
    L500 900
    L550 875
    L600 900
    L675 850
    L650 800
    L700 750
    C800 650 850 550 850 400
    C850 200 750 50 500 50
    Z
    M350 400
    A75 75 0 1 1 350 401
    M650 400
    A75 75 0 1 1 650 401
    M400 600
    L600 600
    L550 700
    L450 700
    Z
  " 
  fill="black"
  />
</svg> 